<svg xmlns="http://www.w3.org/2000/svg" viewBox="0 0 720 160" role="img" aria-label="Blackline Public Adjusters">
  <rect width="720" height="160" fill="#F4EFE4"/>
  <g transform="translate(4,36)" fill="#C6A85B">
    <path d="M34.90 37.28V11.42Q35.82 11.34 36.74 11.26Q37.66 11.17 38.58 11.17Q41.76 11.17 43.81 12.01Q45.86 12.85 47.03 14.56Q48.20 16.28 48.70 18.91Q49.21 21.55 49.21 25.23Q49.21 27.49 48.91 29.67Q48.62 31.84 47.53 33.56Q46.44 35.27 44.27 36.28Q42.09 37.28 38.33 37.28ZM34.90 68.66V38.45H39.75Q43.93 38.45 46.23 40.17Q48.54 41.88 49.67 44.23Q50.79 46.57 51.05 48.95Q51.30 51.34 51.30 52.76Q51.30 57.87 50.50 61.00Q49.71 64.14 48.20 65.90Q46.69 67.66 44.56 68.28Q42.43 68.91 39.75 68.91Q37.15 68.91 34.90 68.66ZM22.76 11.42V68.66H15.06V69.83H27.70Q31.21 69.83 34.69 69.92Q38.16 70.00 41.67 70.00Q44.85 70.00 48.87 69.29Q52.89 68.58 56.44 66.74Q60.00 64.90 62.47 61.72Q64.94 58.54 64.94 53.68Q64.94 49.25 63.01 46.32Q61.09 43.39 58.16 41.59Q55.23 39.79 51.72 38.95Q48.20 38.12 44.94 37.87V37.53Q46.95 37.28 49.83 36.44Q52.72 35.61 55.40 34.02Q58.08 32.43 59.96 29.96Q61.84 27.49 61.84 23.89Q61.84 19.87 59.92 17.20Q57.99 14.52 55.02 12.93Q52.05 11.34 48.45 10.67Q44.85 10.00 41.59 10.00Q38.08 10.00 34.64 10.13Q31.21 10.25 27.70 10.25H15.06V11.42Z"/>
  </g>
  <text x="96" y="78" font-family="Times New Roman, Times, serif" font-size="28" font-weight="700" letter-spacing="6" fill="#0F1C2E">BLACKLINE</text>
  <text x="96" y="102" font-family="Times New Roman, Times, serif" font-size="11" font-weight="600" letter-spacing="3.2" fill="#4A5560">PUBLIC ADJUSTERS LLC</text>
  <line x1="8" y1="132" x2="712" y2="132" stroke="#C6A85B" stroke-width="1"/>
</svg>
